<svg width="222" height="213" viewBox="0 0 222 213" fill="none" xmlns="http://www.w3.org/2000/svg">
<path fill-rule="evenodd" clip-rule="evenodd" d="M110.711 56.6851C121.798 59.6797 130.062 61.089 130.062 61.089C125.314 56.4334 121.054 51.6269 117.358 47.072C123.8 38.1384 128.855 31.973 128.855 31.973C122.029 33.4577 115.562 35.2696 109.787 37.1318C104.296 29.4062 101.267 23.9453 101.267 23.9453C99.6761 29.7585 98.8806 35.5716 98.6239 41.0324C89.4364 44.5304 83.7135 47.374 83.7135 47.374C88.6665 49.5634 93.8249 51.4759 98.8292 53.1368C99.6248 63.6306 101.806 70.9285 101.806 70.9285C104.629 66.0716 107.683 61.2148 110.711 56.6851Z" fill="white"/>
<path fill-rule="evenodd" clip-rule="evenodd" d="M161.345 53.9421C159.831 56.2573 157.521 57.9182 154.827 59.0757C154.467 51.652 153.287 45.084 153.287 45.084C150.977 51.1991 148.539 56.6096 146.178 61.2903C138.043 62.322 130.061 61.1393 130.061 61.1393C134.45 66.2981 137.837 69.3431 140.583 71.4066C136.477 78.2012 133.475 81.8502 133.475 81.8502C139.223 80.5667 143.817 78.4277 147.435 75.886C148.924 76.8926 150.207 77.9999 151.465 79.9124C151.465 79.9124 153.826 76.641 154.621 69.0915C160.472 61.5671 161.345 53.9421 161.345 53.9421Z" fill="white"/>
<path fill-rule="evenodd" clip-rule="evenodd" d="M158.702 33.3319C156.11 27.6194 152.363 23.2911 148.309 20.0448C144.844 12.8979 140.84 9.57611 140.84 9.57611C141.148 11.2622 140.892 13.1244 140.276 15.0369C131.627 10.8344 123.749 10.2556 123.749 10.2556C128.779 13.4767 133.244 17.4779 137.068 21.605C133.552 27.242 128.907 31.973 128.907 31.973C135.066 30.6141 140.019 30.0353 143.971 29.9346C150.054 38.1384 153.313 45.0337 153.313 45.0337C153.441 39.4722 152.877 34.6405 151.927 30.4631C157.06 31.4697 158.702 33.3319 158.702 33.3319Z" fill="white"/>
<path fill-rule="evenodd" clip-rule="evenodd" d="M123.748 10.2555C119.539 8.19198 115.536 6.75758 111.814 5.75098C116.562 1.80007 121.002 0.81863 121.002 0.81863C113.38 0.51665 106.81 1.87556 101.318 3.93909C93.1058 3.2848 87.8961 4.69404 87.8961 4.69404C89.128 5.59999 90.1545 7.23571 91.2324 9.17342C84.3032 13.829 80.7874 18.6858 80.7874 18.6858C84.9705 16.6474 89.4103 15.1124 93.773 13.9296C94.2606 14.7852 94.7482 15.6408 95.2872 16.4713C98.1871 20.9003 101.369 23.9705 101.369 23.9705C102.499 18.6606 104.449 14.5587 106.707 11.3376C116.408 10.0039 123.748 10.2555 123.748 10.2555Z" fill="white"/>
<path fill-rule="evenodd" clip-rule="evenodd" d="M71.0614 26.5625C73.6791 24.0963 76.8613 21.4036 80.7108 18.6606C80.7108 18.6606 77.1436 18.6606 73.3968 19.5918C75.8861 13.678 78.6321 10.4065 78.6321 10.4065C78.6321 10.4065 62.7978 21.454 59.7952 41.2841C59.7952 41.2841 61.1297 37.6855 65.6464 32.275C67.4429 36.2007 69.4959 38.6921 69.4959 38.6921C69.5472 34.1875 70.1632 30.1108 71.0614 26.5625Z" fill="white"/>
<path fill-rule="evenodd" clip-rule="evenodd" d="M83.7647 47.3991C78.2728 47.5753 73.9613 48.0534 70.5994 48.6322C69.6499 42.8694 69.5216 38.7172 69.5216 38.7172C66.8013 42.7687 65.0561 46.6945 63.9526 50.3434C60.1288 51.7275 59.1536 53.0864 59.1536 53.0864C59.7438 55.0745 60.95 57.0373 62.4385 58.8492C61.9765 67.4808 64.8252 73.1933 64.8252 73.1933C65.4668 70.1735 66.7499 67.2292 68.3411 64.461C73.0374 68.1351 77.6825 70.551 77.6825 70.551C75.5011 66.7007 73.8843 62.3975 72.7038 58.2453C77.9648 51.7778 83.7647 47.3991 83.7647 47.3991Z" fill="white"/>
<path fill-rule="evenodd" clip-rule="evenodd" d="M110.942 91.5134C110.942 91.5134 106.323 89.7015 99.7273 86.0526C99.9583 82.152 100.574 77.2197 101.832 70.9284C101.832 70.9284 96.5964 76.0117 89.7956 79.9627C85.8434 77.2952 81.7116 74.1495 77.6825 70.5509C77.6825 70.5509 79.6329 76.4899 83.4054 83.0328C79.8125 84.3414 76.1427 84.9453 72.7551 84.14C72.7551 84.14 76.7329 89.0221 89.0514 91.0856C92.4646 95.0617 96.622 98.3331 101.472 99.4655C101.472 99.4655 100.01 97.9053 99.676 91.9915C103.038 92.0419 106.785 91.916 110.942 91.5134Z" fill="white"/>
<path fill-rule="evenodd" clip-rule="evenodd" d="M133.243 91.0102C134.295 86.2288 133.5 81.7998 133.5 81.7998C130.395 86.1785 127.341 89.5254 124.492 92.0671C116.87 92.4446 110.942 91.5135 110.942 91.5135C110.942 91.5135 114.329 94.8353 118.256 96.773C113.072 99.9186 109.607 100.195 109.607 100.195C132.268 100.674 145.87 86.1533 145.87 86.1533C142.046 88.6195 137.632 90.1294 133.243 91.0102Z" fill="white"/>
<path fill-rule="evenodd" clip-rule="evenodd" d="M85.8954 150.123C91.6184 143.706 100.062 139.629 109.429 139.629C119.078 139.629 127.727 143.932 133.45 150.677L134.964 149.292C128.856 142.171 119.694 137.641 109.454 137.641C99.497 137.641 90.5405 141.944 84.4326 148.739L85.8954 150.123Z" fill="white"/>
<path fill-rule="evenodd" clip-rule="evenodd" d="M106.785 133.866L97.6236 135.729L95.3396 124.882L104.347 123.045L104.784 125.033L98.8555 126.241L99.3174 128.506L104.989 127.349L105.4 129.362L99.7537 130.494L100.293 133.111L106.349 131.878L106.785 133.866Z" fill="white"/>
<path fill-rule="evenodd" clip-rule="evenodd" d="M124.236 126.87L118.77 125.738L118.257 128.154L123.723 129.286L123.287 131.274L117.82 130.142L116.871 134.596L113.791 133.967L116.127 123.096L124.673 124.882L124.236 126.87Z" fill="white"/>
<path fill-rule="evenodd" clip-rule="evenodd" d="M137.427 145.417L134.707 142.9L135.143 140.51L130.498 137.339L128.445 138.622L125.365 136.936L136.349 130.494L139.352 132.533L137.427 145.417ZM136.477 133.564L132.32 136.131L135.631 138.371L136.477 133.564Z" fill="white"/>
<path fill-rule="evenodd" clip-rule="evenodd" d="M87.1531 140.988C85.1257 142.573 81.6868 143.857 79.1718 140.963L75.5532 136.383L77.9912 134.495L81.5585 138.975C82.8416 140.459 84.4584 140.183 85.7416 139.176C87.0248 138.195 87.692 136.71 86.5115 135.124L82.9443 130.645L85.3823 128.758L89.0265 133.338C91.1566 136.282 89.8221 138.899 87.1531 140.988Z" fill="white"/>
<path fill-rule="evenodd" clip-rule="evenodd" d="M148.565 134.596C138.813 124.555 125.058 118.289 109.788 118.289C94.3385 118.289 80.429 124.706 70.6512 134.974L69.0088 133.338C79.2741 122.794 93.7226 116.251 109.737 116.251C125.648 116.251 139.994 122.718 150.233 133.086L148.565 134.596Z" fill="white"/>
<path fill-rule="evenodd" clip-rule="evenodd" d="M159.498 178.71C152.723 178.71 148.617 173.149 148.617 167.034C148.617 160.692 153.416 156.087 159.678 156.087C166.607 156.087 170.79 161.497 170.79 167.436C170.79 174.457 165.58 178.71 159.498 178.71ZM159.113 159.283C154.904 159.283 153.647 163.209 153.647 165.876C153.647 169.777 155.418 175.489 160.268 175.489C163.733 175.489 165.76 172.444 165.76 168.821C165.76 164.97 164.22 159.283 159.113 159.283Z" fill="white"/>
<path fill-rule="evenodd" clip-rule="evenodd" d="M118.026 175.54C118.026 176.747 118.257 177.175 120.233 177.553V178.383C118.077 178.283 116.768 178.182 115.511 178.182C114.253 178.182 112.919 178.283 111.43 178.383V177.553C112.765 177.326 112.996 176.748 112.996 175.187V158.88C112.996 157.949 112.585 157.521 111.43 157.471V156.54H121.49C127.778 156.54 130.062 159.484 130.062 163.335C130.062 167.462 126.854 170.003 122.466 170.003C120.798 170.003 118.36 169.173 118.36 168.468C118.36 168.166 118.565 168.166 118.873 168.166C119.181 168.166 119.617 168.267 120.053 168.267C123.621 168.267 125.006 166.304 125.006 163.536C125.006 160.541 123.107 159.459 120.105 159.459L118 159.686L118.026 175.54Z" fill="white"/>
<path fill-rule="evenodd" clip-rule="evenodd" d="M136.657 158.654C136.657 157.723 136.247 157.295 135.092 157.245V156.364C136.58 156.464 137.915 156.565 139.172 156.565C140.43 156.565 141.764 156.464 143.253 156.364V157.245C142.098 157.27 141.687 157.698 141.687 158.654V176.118C141.687 177.049 142.098 177.477 143.253 177.528V178.358C141.764 178.257 140.43 178.157 139.172 178.157C137.915 178.157 136.58 178.257 135.092 178.358V177.528C136.247 177.502 136.657 177.049 136.657 176.118V158.654Z" fill="white"/>
<path fill-rule="evenodd" clip-rule="evenodd" d="M177.616 158.629C177.616 157.698 177.206 157.27 176.051 157.219V156.339C177.539 156.439 178.874 156.54 180.131 156.54C181.055 156.54 182.082 156.54 183.134 156.339L192.527 171.261H192.604V159.082C192.604 157.345 191.474 157.219 190.551 157.219V156.339C191.68 156.439 192.758 156.54 193.81 156.54C194.939 156.54 196.068 156.439 197.146 156.339V157.219C195.991 157.245 195.581 157.672 195.581 158.629V178.358H191.962L180.67 161.12H180.593V175.64C180.593 177.377 181.722 177.502 182.646 177.502V178.333C181.517 178.232 180.439 178.132 179.387 178.132C178.258 178.132 177.154 178.232 176.051 178.333V177.502C177.206 177.477 177.616 177.024 177.616 176.093V158.629Z" fill="white"/>
<path fill-rule="evenodd" clip-rule="evenodd" d="M204.1 170.783C204.793 174.533 207.308 176.269 211.055 176.269C213.108 176.269 216.085 175.691 216.085 173.124C216.085 171.06 213.929 170.507 212.313 170.028L209.823 169.299C206.256 168.267 202.689 166.782 202.689 162.731C202.689 157.421 207.95 155.81 213.159 155.81C215.367 155.81 217.651 156.188 219.678 156.917C219.678 159.384 219.806 161.472 219.96 163.259H219.088C218.343 160.113 215.726 158.629 212.569 158.629C210.824 158.629 207.873 159.182 207.873 161.548C207.873 163.435 209.567 163.989 210.978 164.391L214.648 165.423C218.19 166.405 221.474 167.688 221.474 172.142C221.474 176.672 216.804 179.088 211.106 179.088C208.54 179.088 205.845 178.685 203.51 177.855C203.51 175.137 203.407 172.771 203.228 170.783H204.1Z" fill="white"/>
<path fill-rule="evenodd" clip-rule="evenodd" d="M27.2294 158.654C27.2294 157.723 26.8188 157.295 25.6639 157.245V156.364C27.1524 156.464 28.4869 156.565 29.7444 156.565C31.0019 156.565 32.3364 156.464 33.8249 156.364V157.245C32.67 157.27 32.2594 157.698 32.2594 158.654V165.247H40.4974V158.654C40.4974 157.723 40.0868 157.295 38.9319 157.245V156.364C40.4204 156.464 41.7549 156.565 43.0124 156.565C44.2699 156.565 45.6044 156.464 47.0929 156.364V157.245C45.938 157.27 45.5274 157.698 45.5274 158.654V176.144C45.5274 177.075 45.938 177.502 47.0929 177.553V178.408C45.6044 178.308 44.2699 178.207 43.0124 178.207C41.7549 178.207 40.4204 178.308 38.9319 178.408V177.553C40.0868 177.528 40.4974 177.075 40.4974 176.144V168.468H32.2594V176.144C32.2594 177.075 32.67 177.502 33.8249 177.553V178.408C32.3364 178.308 31.0019 178.207 29.7444 178.207C28.4869 178.207 27.1524 178.308 25.6639 178.408V177.553C26.8188 177.528 27.2294 177.075 27.2294 176.144V158.654Z" fill="white"/>
<path fill-rule="evenodd" clip-rule="evenodd" d="M59.6928 168.821C60.5911 166.455 61.6689 163.813 62.4388 161.145H62.5158C63.1831 164.517 63.7733 166.656 64.4919 168.821H59.6928ZM51.4549 178.358C52.6354 178.257 53.8159 178.157 54.9964 178.157C56.1513 178.157 57.3575 178.257 58.4867 178.358V177.528C57.3575 177.452 56.8955 177.05 56.8955 176.471C56.8955 176.144 56.9982 175.766 57.1778 175.313L58.6663 171.387H65.2875L66.3653 174.608C66.545 175.036 66.6989 175.816 66.6989 176.269C66.6989 177.024 66.2627 177.301 65.0052 177.528V178.358C66.468 178.257 67.9308 178.157 69.3936 178.157C70.8308 178.157 72.2936 178.257 73.705 178.358V177.528C72.6785 177.251 72.1909 176.823 71.652 175.363L65.3901 156.389C64.3379 156.49 63.2344 156.59 62.2078 156.59C61.1557 156.59 60.1035 156.49 58.9999 156.389V157.27C59.9238 157.27 60.2831 157.798 60.2831 158.125C60.2831 158.452 60.0521 158.931 59.8468 159.434L53.1743 176.018C52.8407 176.873 52.3788 177.427 51.4036 177.553L51.4549 178.358Z" fill="white"/>
<path fill-rule="evenodd" clip-rule="evenodd" d="M80.5831 161.799C80.6087 160.868 80.6857 159.937 80.6857 158.603C80.6857 157.572 80.4548 157.446 79.1459 157.27V156.389C80.1725 156.49 81.3786 156.59 82.6105 156.59C83.8423 156.59 85.0485 156.49 86.2803 156.389L92.2342 171.865L97.5722 156.389C98.7527 156.49 99.9333 156.59 101.114 156.59C102.294 156.59 103.5 156.49 104.655 156.389V157.27C103.475 157.37 103.295 157.723 103.295 158.629C103.295 159.56 103.423 161.07 103.526 162.202L104.604 176.446C104.681 177.326 105.656 177.452 106.349 177.553V178.383C104.886 178.283 103.398 178.182 101.935 178.182C100.447 178.182 98.9837 178.283 97.5722 178.383V177.553C99.2403 177.351 99.6766 177.049 99.6766 175.514C99.6766 174.709 99.574 173.199 99.4713 172.117L98.7014 162.177H98.6244L92.9528 178.585H90.1042L83.6114 162.001H83.5344L83.2521 171.765C83.2264 173.501 83.1494 174.407 83.1494 175.288C83.1494 176.949 83.3291 177.326 85.3565 177.553V178.383C83.9963 178.283 82.7388 178.182 81.4556 178.182C80.1981 178.182 78.9406 178.283 77.8884 178.383V177.553C79.2229 177.452 79.7619 177.15 79.8388 175.741L80.5831 161.799Z" fill="white"/>
<path fill-rule="evenodd" clip-rule="evenodd" d="M20.5307 177.15C18.1953 178.912 14.8591 179.616 12.6777 179.616C4.59375 179.616 0 173.426 0 167.109C0 160.642 4.59375 154.401 13.3706 154.401C16.4502 154.401 18.6573 154.98 19.5298 155.307C19.5298 157.823 19.6581 160.264 19.8635 162.68H18.8882C18.298 159.585 16.0909 157.949 12.9343 157.949C8.64856 157.949 5.36365 161.246 5.36365 166.832C5.36365 171.035 8.90519 175.791 13.8326 175.791C15.937 175.791 18.9652 174.659 20.9926 172.998L20.5307 177.15Z" fill="white"/>
<path fill-rule="evenodd" clip-rule="evenodd" d="M57.3578 190.437C57.3578 189.707 57.0499 189.38 56.1516 189.355V188.651C57.3065 188.726 58.333 188.801 59.3082 188.801C60.4118 188.801 62.0029 188.726 62.7728 188.651V189.355C61.4383 189.405 61.2586 190.06 61.2586 190.764V203.372H66.109C67.8285 203.372 68.547 202.592 68.9833 200.654H69.8302C69.5222 202.34 69.2143 203.976 69.1886 205.637H56.126V204.932C57.0242 204.907 57.3322 204.58 57.3322 203.85V190.437H57.3578Z" fill="white"/>
<path fill-rule="evenodd" clip-rule="evenodd" d="M74.0649 190.513C74.0649 189.783 73.7569 189.456 72.8587 189.431V188.726H86.1267C86.1523 190.135 86.2036 191.293 86.332 192.677H85.6134C85.3568 191.268 84.9975 190.764 83.5603 190.764H77.94V195.747H81.4302C82.6108 195.747 82.7904 195.37 82.9444 194.439H83.663C83.586 195.093 83.509 196.2 83.509 196.88C83.509 197.584 83.586 198.717 83.663 199.321H82.9444C82.7904 198.39 82.6108 198.012 81.4302 198.012H77.94V203.372H83.8426C85.2541 203.372 85.716 202.919 86.1523 200.755H87.0249C86.7939 202.869 86.7426 204.228 86.7169 205.662H72.833V204.958C73.7312 204.932 74.0392 204.605 74.0392 203.876V190.513H74.0649Z" fill="white"/>
<path fill-rule="evenodd" clip-rule="evenodd" d="M90.2068 204.932C90.9767 204.832 91.3104 204.429 91.567 203.75L96.6997 190.991C96.8537 190.614 97.0333 190.236 97.0333 189.984C97.0333 189.733 96.751 189.305 96.0324 189.305V188.6C96.8793 188.676 97.6749 188.751 98.4961 188.751C99.3173 188.751 100.139 188.676 100.96 188.6L105.785 203.246C106.169 204.379 106.58 204.706 107.35 204.907V205.612C106.246 205.536 105.117 205.461 104.014 205.461C102.885 205.461 101.755 205.536 100.626 205.612V204.907C101.601 204.731 101.935 204.53 101.935 203.926C101.935 203.574 101.807 202.97 101.678 202.642L100.831 200.151H95.6988L94.544 203.171C94.4156 203.523 94.3386 203.8 94.3386 204.077C94.3386 204.53 94.6979 204.832 95.5705 204.907V205.612C94.6723 205.536 93.7484 205.461 92.8758 205.461C91.9519 205.461 91.0537 205.536 90.1555 205.612L90.2068 204.932ZM100.267 198.239C99.728 196.552 99.266 194.917 98.7527 192.325H98.7014C98.0855 194.388 97.2643 196.401 96.5714 198.239H100.267Z" fill="white"/>
<path fill-rule="evenodd" clip-rule="evenodd" d="M121.466 199.622C121.466 198.591 120.978 198.54 119.823 198.515V197.66C120.901 197.735 121.979 197.811 123.082 197.811C124.263 197.811 125.418 197.735 126.598 197.66V198.465C125.674 198.49 125.212 198.717 125.212 199.874V205.637H123.698L123.108 203.926C121.44 205.461 119.72 205.989 117.924 205.989C112.997 205.989 109.84 201.988 109.84 197.358C109.84 191.771 113.638 188.374 119.31 188.374C121.132 188.374 123.082 188.701 124.494 189.582C124.494 190.84 124.545 192.299 124.648 194.086H123.904C123.57 191.796 121.337 190.664 119.156 190.664C115.512 190.664 113.715 193.407 113.715 196.729C113.715 199.924 115.563 203.523 118.591 203.523C120.465 203.523 121.491 202.667 121.491 201.485L121.466 199.622Z" fill="white"/>
<path fill-rule="evenodd" clip-rule="evenodd" d="M131.858 190.437C131.858 189.707 131.55 189.38 130.652 189.355V188.651C131.499 188.726 132.577 188.801 133.68 188.801C135.041 188.801 136.118 188.726 137.171 188.651V189.355C136.041 189.405 135.759 189.607 135.759 190.613V200.226C135.759 203.146 136.991 203.699 139.121 203.699C141.251 203.699 142.483 203.07 142.483 200.226V190.613C142.483 189.607 142.201 189.405 141.071 189.355V188.651C142.124 188.726 143.201 188.801 144.562 188.801C145.665 188.801 146.743 188.726 147.59 188.651V189.355C146.692 189.38 146.384 189.707 146.384 190.437V199.698C146.384 204.454 143.869 205.989 139.147 205.989C134.425 205.989 131.884 204.479 131.884 200.05L131.858 190.437Z" fill="white"/>
<path fill-rule="evenodd" clip-rule="evenodd" d="M153.133 190.513C153.133 189.783 152.825 189.456 151.927 189.431V188.726H165.195C165.221 190.135 165.272 191.293 165.4 192.677H164.682C164.425 191.268 164.066 190.764 162.629 190.764H157.009V195.672H160.499C161.679 195.672 161.859 195.294 162.013 194.363H162.731C162.654 195.017 162.578 196.125 162.578 196.804C162.578 197.509 162.654 198.641 162.731 199.27H162.013C161.859 198.339 161.679 197.962 160.499 197.962H157.009V203.397H162.911C164.323 203.397 164.785 202.944 165.221 200.78H166.093C165.862 202.894 165.811 204.253 165.785 205.687H151.927V204.983C152.825 204.958 153.133 204.63 153.133 203.901V190.513Z" fill="white"/>
<path fill-rule="evenodd" clip-rule="evenodd" d="M170.173 212.582C171.893 212.582 173.33 211.274 173.33 209.487C173.33 207.726 171.867 206.417 170.173 206.417C168.454 206.417 166.991 207.726 166.991 209.487C166.991 211.274 168.454 212.582 170.173 212.582ZM167.633 209.512C167.633 208.053 168.762 206.946 170.199 206.946C171.611 206.946 172.74 208.053 172.74 209.512C172.74 210.997 171.611 212.079 170.199 212.079C168.736 212.079 167.633 210.972 167.633 209.512ZM169.506 209.739H170.148L171.097 211.274H171.713L170.687 209.714C171.226 209.638 171.636 209.361 171.636 208.732C171.636 208.028 171.226 207.726 170.353 207.726H168.967V211.274H169.506V209.739ZM169.506 209.286V208.179H170.25C170.635 208.179 171.046 208.254 171.046 208.707C171.046 209.261 170.635 209.286 170.173 209.286H169.506Z" fill="white"/>
</svg>
